%TF.GenerationSoftware,KiCad,Pcbnew,9.0.3*%
%TF.CreationDate,2025-08-22T09:44:06+02:00*%
%TF.ProjectId,kord,6b6f7264-2e6b-4696-9361-645f70636258,rev?*%
%TF.SameCoordinates,Original*%
%TF.FileFunction,Legend,Top*%
%TF.FilePolarity,Positive*%
%FSLAX46Y46*%
G04 Gerber Fmt 4.6, Leading zero omitted, Abs format (unit mm)*
G04 Created by KiCad (PCBNEW 9.0.3) date 2025-08-22 09:44:06*
%MOMM*%
%LPD*%
G01*
G04 APERTURE LIST*
%ADD10C,0.120000*%
G04 APERTURE END LIST*
D10*
%TO.C,REF\u002A\u002A*%
X164620000Y-104120000D02*
X166000000Y-104120000D01*
X164620000Y-105500000D02*
X164620000Y-104120000D01*
X164620000Y-106770000D02*
X164620000Y-109420000D01*
X164620000Y-106770000D02*
X167380000Y-106770000D01*
X164620000Y-109420000D02*
X167380000Y-109420000D01*
X167380000Y-106770000D02*
X167380000Y-109420000D01*
X164620000Y-98620000D02*
X166000000Y-98620000D01*
X164620000Y-100000000D02*
X164620000Y-98620000D01*
X164620000Y-101270000D02*
X164620000Y-101380000D01*
X164620000Y-101270000D02*
X167380000Y-101270000D01*
X164620000Y-101380000D02*
X167380000Y-101380000D01*
X167380000Y-101270000D02*
X167380000Y-101380000D01*
X164620000Y-69620000D02*
X166000000Y-69620000D01*
X164620000Y-71000000D02*
X164620000Y-69620000D01*
X164620000Y-72270000D02*
X164620000Y-72380000D01*
X164620000Y-72270000D02*
X167380000Y-72270000D01*
X164620000Y-72380000D02*
X167380000Y-72380000D01*
X167380000Y-72270000D02*
X167380000Y-72380000D01*
X164620000Y-86120000D02*
X166000000Y-86120000D01*
X164620000Y-87500000D02*
X164620000Y-86120000D01*
X164620000Y-88770000D02*
X164620000Y-91420000D01*
X164620000Y-88770000D02*
X167380000Y-88770000D01*
X164620000Y-91420000D02*
X167380000Y-91420000D01*
X167380000Y-88770000D02*
X167380000Y-91420000D01*
X164620000Y-93620000D02*
X166000000Y-93620000D01*
X164620000Y-95000000D02*
X164620000Y-93620000D01*
X164620000Y-96270000D02*
X164620000Y-96380000D01*
X164620000Y-96270000D02*
X167380000Y-96270000D01*
X164620000Y-96380000D02*
X167380000Y-96380000D01*
X167380000Y-96270000D02*
X167380000Y-96380000D01*
X164620000Y-63120000D02*
X166000000Y-63120000D01*
X164620000Y-64500000D02*
X164620000Y-63120000D01*
X164620000Y-65770000D02*
X164620000Y-68420000D01*
X164620000Y-65770000D02*
X167380000Y-65770000D01*
X164620000Y-68420000D02*
X167380000Y-68420000D01*
X167380000Y-65770000D02*
X167380000Y-68420000D01*
X138620000Y-88620000D02*
X140000000Y-88620000D01*
X138620000Y-90000000D02*
X138620000Y-88620000D01*
X138620000Y-91270000D02*
X138620000Y-106620000D01*
X138620000Y-91270000D02*
X141380000Y-91270000D01*
X138620000Y-106620000D02*
X141380000Y-106620000D01*
X141380000Y-91270000D02*
X141380000Y-106620000D01*
X143390000Y-58020000D02*
X145880000Y-58020000D01*
X145880000Y-58020000D02*
X145880000Y-58933520D01*
X145880000Y-61326480D02*
X145880000Y-105933520D01*
X145880000Y-108326480D02*
X145880000Y-109240000D01*
X160900000Y-58020000D02*
X160900000Y-58933520D01*
X160900000Y-61326480D02*
X160900000Y-105933520D01*
X160900000Y-108326480D02*
X160900000Y-109240000D01*
X163390000Y-58020000D02*
X160900000Y-58020000D01*
X168620000Y-60620000D02*
X170000000Y-60620000D01*
X168620000Y-62000000D02*
X168620000Y-60620000D01*
X168620000Y-63270000D02*
X168620000Y-73540000D01*
X168620000Y-63270000D02*
X171380000Y-63270000D01*
X168620000Y-73540000D02*
X171380000Y-73540000D01*
X171380000Y-63270000D02*
X171380000Y-73540000D01*
%TD*%
M02*
