M48
; DRILL file {KiCad 9.0.3} date 2025-08-22T09:44:04+0200
; FORMAT={-:-/ absolute / metric / decimal}
; #@! TF.CreationDate,2025-08-22T09:44:04+02:00
; #@! TF.GenerationSoftware,Kicad,Pcbnew,9.0.3
; #@! TF.FileFunction,Plated,1,2,PTH
FMAT,2
METRIC
; #@! TA.AperFunction,Plated,PTH,ComponentDrill
T1C1.000
%
G90
G05
T1
X140.0Y-90.0
X140.0Y-92.54
X140.0Y-95.08
X140.0Y-97.62
X140.0Y-100.16
X140.0Y-102.7
X140.0Y-105.24
X144.5Y-59.5
X144.5Y-62.04
X144.5Y-64.58
X144.5Y-67.12
X144.5Y-69.66
X144.5Y-72.2
X144.5Y-74.74
X144.5Y-77.28
X144.5Y-79.82
X144.5Y-82.36
X144.5Y-84.9
X144.5Y-87.44
X144.5Y-89.98
X144.5Y-92.52
X144.5Y-95.06
X144.5Y-97.6
X144.5Y-100.14
X144.5Y-102.68
X144.5Y-105.22
X144.5Y-107.76
X162.28Y-59.5
X162.28Y-62.04
X162.28Y-64.58
X162.28Y-67.12
X162.28Y-69.66
X162.28Y-72.2
X162.28Y-74.74
X162.28Y-77.28
X162.28Y-79.82
X162.28Y-82.36
X162.28Y-84.9
X162.28Y-87.44
X162.28Y-89.98
X162.28Y-92.52
X162.28Y-95.06
X162.28Y-97.6
X162.28Y-100.14
X162.28Y-102.68
X162.28Y-105.22
X162.28Y-107.76
X166.0Y-64.5
X166.0Y-67.04
X166.0Y-71.0
X166.0Y-87.5
X166.0Y-90.04
X166.0Y-95.0
X166.0Y-100.0
X166.0Y-105.5
X166.0Y-108.04
X170.0Y-62.0
X170.0Y-64.54
X170.0Y-67.08
X170.0Y-69.62
X170.0Y-72.16
M30
